HIERARCHY
ROOT hip
{
	OFFSET 0.000000 103.560692 0.219151
	CHANNELS 6 Xposition Yposition Zposition Zrotation Xrotation Yrotation
	JOINT pelvis
	{
		OFFSET 0.000000 1.955040 1.591925
		CHANNELS 3 Zrotation Xrotation Yrotation
		JOINT lThigh
		{
			OFFSET 8.341582 -7.629402 -0.646910
			CHANNELS 3 Zrotation Xrotation Yrotation
			JOINT lShin
			{
				OFFSET 2.185763 -45.093132 -0.705710
				CHANNELS 3 Zrotation Xrotation Yrotation
				JOINT lFoot
				{
					OFFSET 0.730976 -46.379768 -2.264282
					CHANNELS 3 Zrotation Xrotation Yrotation
					JOINT lToe
					{
						OFFSET 2.797621 -4.200020 10.742415
						CHANNELS 3 Zrotation Xrotation Yrotation
						JOINT lBigToe
						{
							OFFSET -2.433708 -0.269072 1.841711
							CHANNELS 3 Zrotation Xrotation Yrotation
							End Site
							{
								OFFSET -10.527346 -33.657166 -1.340707
							}
						}
					}
				}
			}
		}
		JOINT rThigh
		{
			OFFSET -8.341582 -7.629402 -0.646910
			CHANNELS 3 Zrotation Xrotation Yrotation
			JOINT rShin
			{
				OFFSET -2.185763 -45.093132 -0.705710
				CHANNELS 3 Zrotation Xrotation Yrotation
				JOINT rFoot
				{
					OFFSET -0.730976 -46.379768 -2.264282
					CHANNELS 3 Zrotation Xrotation Yrotation
					JOINT rToe
					{
						OFFSET -2.797621 -4.200019 10.742415
						CHANNELS 3 Zrotation Xrotation Yrotation
						JOINT rBigToe
						{
							OFFSET 2.433708 -0.269072 1.841711
							CHANNELS 3 Zrotation Xrotation Yrotation
							End Site
							{
								OFFSET 0.000000 24.298409 -0.425647
							}
						}
					}
				}
			}
		}
	}
	JOINT abdomen
	{
		OFFSET 0.000000 1.841293 -3.551421
		CHANNELS 3 Zrotation Xrotation Yrotation
		JOINT abdomen2
		{
			OFFSET 0.000000 5.439911 3.419600
			CHANNELS 3 Zrotation Xrotation Yrotation
			JOINT chest
			{
				OFFSET 0.000000 14.715073 -2.918270
				CHANNELS 3 Zrotation Xrotation Yrotation
				JOINT neck
				{
					OFFSET 0.000000 26.294655 -1.248052
					CHANNELS 3 Zrotation Xrotation Yrotation
					JOINT head
					{
						OFFSET 0.000000 8.807068 1.063695
						CHANNELS 3 Zrotation Xrotation Yrotation
						JOINT rEye
						{
							OFFSET -3.030866 6.632080 7.702687
							CHANNELS 3 Zrotation Xrotation Yrotation
							End Site
							{
								OFFSET 2.969555 -11.022598 8.626689
							}
						}
						JOINT lEye
						{
							OFFSET 3.030866 6.632080 7.702687
							CHANNELS 3 Zrotation Xrotation Yrotation
							End Site
							{
								OFFSET 0.000000 -15.881760 10.104412
							}
						}
						JOINT upperJaw
						{
							OFFSET 0.000000 1.922699 2.891887
							CHANNELS 3 Zrotation Xrotation Yrotation
							End Site
							{
								OFFSET 0.000000 -19.386169 10.230839
							}
						}
						JOINT lowerJaw
						{
							OFFSET 0.000000 1.857620 2.686640
							CHANNELS 3 Zrotation Xrotation Yrotation
							JOINT tongueBase
							{
								OFFSET 0.000000 -3.019135 2.746916
								CHANNELS 3 Zrotation Xrotation Yrotation
								JOINT tongue01
								{
									OFFSET 0.000000 0.664124 0.223355
									CHANNELS 3 Zrotation Xrotation Yrotation
									JOINT tongue02
									{
										OFFSET 0.000000 0.339737 0.715627
										CHANNELS 3 Zrotation Xrotation Yrotation
										JOINT tongue03
										{
											OFFSET 0.000000 0.123444 0.730634
											CHANNELS 3 Zrotation Xrotation Yrotation
											JOINT tongue04
											{
												OFFSET 0.000000 0.017212 0.737415
												CHANNELS 3 Zrotation Xrotation Yrotation
												JOINT tongue05
												{
													OFFSET 0.000000 -0.021011 0.632440
													CHANNELS 3 Zrotation Xrotation Yrotation
													JOINT tongueTip
													{
														OFFSET 0.000000 -0.014404 0.601796
														CHANNELS 3 Zrotation Xrotation Yrotation
														End Site
														{
															OFFSET -14.139406 -2.625778 0.472826
														}
													}
												}
											}
										}
									}
								}
							}
						}
					}
				}
				JOINT rCollar
				{
					OFFSET -2.109295 21.452370 3.768136
					CHANNELS 3 Zrotation Xrotation Yrotation
					JOINT rShldr
					{
						OFFSET -11.491621 -2.568573 -4.940255
						CHANNELS 3 Zrotation Xrotation Yrotation
						JOINT rForeArm
						{
							OFFSET -28.789030 -0.213806 2.098380
							CHANNELS 3 Zrotation Xrotation Yrotation
							JOINT rHand
							{
								OFFSET -22.260895 -0.869583 10.391586
								CHANNELS 3 Zrotation Xrotation Yrotation
								JOINT rThumb1
								{
									OFFSET -0.628075 0.137405 2.362409
									CHANNELS 3 Zrotation Xrotation Yrotation
									JOINT rThumb2
									{
										OFFSET 0.085205 -0.600235 3.826079
										CHANNELS 3 Zrotation Xrotation Yrotation
										JOINT rThumb3
										{
											OFFSET -1.255478 -0.879211 2.439162
											CHANNELS 3 Zrotation Xrotation Yrotation
											End Site
											{
												OFFSET -2.963715 0.538574 4.059553
											}
										}
									}
								}
								JOINT rCarpal1
								{
									OFFSET -0.855530 1.026047 1.621985
									CHANNELS 3 Zrotation Xrotation Yrotation
									JOINT rIndex1
									{
										OFFSET -3.951324 0.390884 3.873290
										CHANNELS 3 Zrotation Xrotation Yrotation
										JOINT rIndex2
										{
											OFFSET -3.071884 -1.259598 2.506104
											CHANNELS 3 Zrotation Xrotation Yrotation
											JOINT rIndex3
											{
												OFFSET -1.394112 -1.446640 1.203302
												CHANNELS 3 Zrotation Xrotation Yrotation
												End Site
												{
													OFFSET -3.392448 -1.258026 0.533405
												}
											}
										}
									}
									JOINT rMid1
									{
										OFFSET -5.422974 0.107910 2.002650
										CHANNELS 3 Zrotation Xrotation Yrotation
										JOINT rMid2
										{
											OFFSET -3.599533 -1.323776 2.090647
											CHANNELS 3 Zrotation Xrotation Yrotation
											JOINT rMid3
											{
												OFFSET -1.360191 -1.598495 1.068055
												CHANNELS 3 Zrotation Xrotation Yrotation
												End Site
												{
													OFFSET -4.087769 -0.460876 0.069540
												}
											}
										}
									}
								}
								JOINT rCarpal2
								{
									OFFSET -1.942749 0.556229 -0.337217
									CHANNELS 3 Zrotation Xrotation Yrotation
									JOINT rRing1
									{
										OFFSET -4.762787 -0.121170 2.349089
										CHANNELS 3 Zrotation Xrotation Yrotation
										JOINT rRing2
										{
											OFFSET -3.380348 -1.337097 1.356700
											CHANNELS 3 Zrotation Xrotation Yrotation
											JOINT rRing3
											{
												OFFSET -1.430290 -1.499649 0.914224
												CHANNELS 3 Zrotation Xrotation Yrotation
												End Site
												{
													OFFSET -1.783272 -2.215851 -0.391895
												}
											}
										}
									}
									JOINT rPinky1
									{
										OFFSET -5.232559 -1.313721 0.336493
										CHANNELS 3 Zrotation Xrotation Yrotation
										JOINT rPinky2
										{
											OFFSET -2.217606 -1.389603 0.800693
											CHANNELS 3 Zrotation Xrotation Yrotation
											JOINT rPinky3
											{
												OFFSET -0.886887 -1.462280 0.774199
												CHANNELS 3 Zrotation Xrotation Yrotation
												End Site
												{
													OFFSET 14.139406 -2.625778 0.472826
												}
											}
										}
									}
								}
							}
						}
					}
				}
				JOINT lCollar
				{
					OFFSET 2.109295 21.452370 3.768136
					CHANNELS 3 Zrotation Xrotation Yrotation
					JOINT lShldr
					{
						OFFSET 11.491621 -2.568573 -4.940255
						CHANNELS 3 Zrotation Xrotation Yrotation
						JOINT lForeArm
						{
							OFFSET 28.789030 -0.213806 2.098380
							CHANNELS 3 Zrotation Xrotation Yrotation
							JOINT lHand
							{
								OFFSET 22.260895 -0.869583 10.391586
								CHANNELS 3 Zrotation Xrotation Yrotation
								JOINT lThumb1
								{
									OFFSET 0.628075 0.137405 2.362409
									CHANNELS 3 Zrotation Xrotation Yrotation
									JOINT lThumb2
									{
										OFFSET -0.085205 -0.600235 3.826079
										CHANNELS 3 Zrotation Xrotation Yrotation
										JOINT lThumb3
										{
											OFFSET 1.255478 -0.879211 2.439162
											CHANNELS 3 Zrotation Xrotation Yrotation
											End Site
											{
												OFFSET 2.963715 0.538574 4.059553
											}
										}
									}
								}
								JOINT lCarpal1
								{
									OFFSET 0.855530 1.026047 1.621985
									CHANNELS 3 Zrotation Xrotation Yrotation
									JOINT lIndex1
									{
										OFFSET 3.951324 0.390884 3.873290
										CHANNELS 3 Zrotation Xrotation Yrotation
										JOINT lIndex2
										{
											OFFSET 3.071884 -1.259598 2.506104
											CHANNELS 3 Zrotation Xrotation Yrotation
											JOINT lIndex3
											{
												OFFSET 1.394112 -1.446640 1.203302
												CHANNELS 3 Zrotation Xrotation Yrotation
												End Site
												{
													OFFSET 3.392448 -1.258026 0.533405
												}
											}
										}
									}
									JOINT lMid1
									{
										OFFSET 5.422974 0.107910 2.002650
										CHANNELS 3 Zrotation Xrotation Yrotation
										JOINT lMid2
										{
											OFFSET 3.599533 -1.323776 2.090647
											CHANNELS 3 Zrotation Xrotation Yrotation
											JOINT lMid3
											{
												OFFSET 1.360191 -1.598495 1.068055
												CHANNELS 3 Zrotation Xrotation Yrotation
												End Site
												{
													OFFSET 4.087769 -0.460876 0.069540
												}
											}
										}
									}
								}
								JOINT lCarpal2
								{
									OFFSET 1.942749 0.556229 -0.337217
									CHANNELS 3 Zrotation Xrotation Yrotation
									JOINT lRing1
									{
										OFFSET 4.762787 -0.121170 2.349089
										CHANNELS 3 Zrotation Xrotation Yrotation
										JOINT lRing2
										{
											OFFSET 3.380348 -1.337097 1.356700
											CHANNELS 3 Zrotation Xrotation Yrotation
											JOINT lRing3
											{
												OFFSET 1.430290 -1.499649 0.914224
												CHANNELS 3 Zrotation Xrotation Yrotation
												End Site
												{
													OFFSET 1.783272 -2.215851 -0.391895
												}
											}
										}
									}
									JOINT lPinky1
									{
										OFFSET 5.232559 -1.313721 0.336493
										CHANNELS 3 Zrotation Xrotation Yrotation
										JOINT lPinky2
										{
											OFFSET 2.217606 -1.389603 0.800693
											CHANNELS 3 Zrotation Xrotation Yrotation
											JOINT lPinky3
											{
												OFFSET 0.886887 -1.462280 0.774199
												CHANNELS 3 Zrotation Xrotation Yrotation
												End Site
												{
													OFFSET -10.295957 -17.050110 17.461308
												}
											}
										}
									}
								}
							}
						}
					}
				}
				JOINT rPectoral
				{
					OFFSET -6.358840 6.360771 6.369920
					CHANNELS 3 Zrotation Xrotation Yrotation
					End Site
					{
						OFFSET 10.295957 -17.050110 17.461308
					}
				}
				JOINT lPectoral
				{
					OFFSET 6.358840 6.360771 6.369920
					CHANNELS 3 Zrotation Xrotation Yrotation
					End Site
					{
						OFFSET 10.295957 -17.050110 17.461308
					}
				}
			}
		}
	}
}
MOTION
Frames:	4
Frame Time:	0.0333333
-16.769569 0.273376 -136.740448 -2.959405 -3.316046 168.698059 0.000000 0.000000 0.000000 7.942582 1.797884 -6.672656 -5.248345 -3.237694 -17.850185 4.265299 -17.555384 7.485942 6.571629 -8.082528 2.195731 0.000000 0.000000 0.000000 -11.219407 -12.459289 8.650729 3.553441 15.439241 16.534931 -6.195899 -22.201540 -10.479299 -3.880520 -10.743335 -1.654647 0.000000 0.000000 0.000000 5.042019 -2.275071 -2.108394 0.000000 0.000000 0.000000 -1.910447 4.792616 -1.177389 -5.137564 -16.390688 7.395061 1.660164 11.493613 6.419296 0.000000 0.000000 0.000000 0.000000 0.000000 0.000000 0.000000 0.000000 0.000000 0.000000 0.000000 0.000000 0.000000 0.000000 0.000000 0.000000 0.000000 0.000000 0.000000 0.000000 0.000000 0.000000 0.000000 0.000000 0.000000 0.000000 0.000000 0.000000 0.000000 0.000000 0.000000 0.000000 0.000000 17.433193 0.399596 -1.820041 41.788857 32.640789 12.516661 -0.425087 -8.843668 -12.650335 5.300632 3.499836 5.641302 -20.264042 16.013258 -11.237515 -5.406475 -14.233100 9.902917 -16.498158 20.810770 16.029741 0.000000 0.000000 0.000000 -10.482511 -8.511502 -17.446432 -7.420607 -4.485937 -1.787169 -12.585000 -9.895059 -2.364597 -8.647417 -3.307343 -7.176109 -0.594737 3.049747 -3.815813 0.477367 4.595480 -2.175193 0.000000 0.000000 0.000000 -3.938516 -6.903872 0.586259 16.213797 9.629831 -7.269308 1.274629 8.359100 -3.952725 -19.070446 -24.508799 -13.622626 47.926010 21.733870 -10.613248 34.346687 26.767214 -1.864358 -7.956405 -0.429805 6.207621 2.833769 59.688450 -41.762596 9.627005 13.340752 -44.971710 13.030460 -15.462948 -37.813313 11.245318 -4.869613 -13.679650 1.634320 -15.019371 -22.619591 -5.316727 1.296325 -30.678959 0.000000 0.000000 0.000000 27.093050 -14.671666 20.603170 5.700557 -4.600845 0.065384 1.131965 0.273582 0.883759 22.043333 -9.143890 10.652183 5.466877 0.172319 4.274028 -1.861499 4.995955 1.570897 0.000000 0.000000 0.000000 26.528009 -12.104732 9.471539 0.630963 3.654214 6.704972 -6.937136 8.541416 0.399596 43.769981 -22.807060 23.953571 -1.213160 6.711791 7.067072 -18.354317 9.835115 -1.921945 0.083355 -0.004023 -0.244743 -0.205026 -0.010536 0.602075 
-18.202412 0.172662 -136.553909 -3.476822 -3.112009 167.312622 0.000000 0.000000 0.000000 6.488670 1.935794 -6.304646 -5.044672 -3.261497 -17.123508 5.045081 -17.841690 7.926723 6.551009 -7.591228 2.259948 0.000000 0.000000 0.000000 -13.359571 -14.580919 6.699000 3.996265 18.156387 14.003113 -3.617946 -21.508265 -9.043908 -3.818914 -12.157613 -1.530592 0.000000 0.000000 0.000000 5.403547 -1.680629 -1.729777 0.000000 0.000000 0.000000 -2.737574 4.674971 -0.775659 -5.173986 -16.783600 7.494120 1.657518 11.465461 6.512688 0.000000 0.000000 0.000000 0.000000 0.000000 0.000000 0.000000 0.000000 0.000000 0.000000 0.000000 0.000000 0.000000 0.000000 0.000000 0.000000 0.000000 0.000000 0.000000 0.000000 0.000000 0.000000 0.000000 0.000000 0.000000 0.000000 0.000000 0.000000 0.000000 0.000000 0.000000 0.000000 0.000000 17.489449 0.441434 -1.657976 41.921375 32.532623 12.961773 -0.330130 -9.455585 -12.677249 5.565095 3.642477 5.414870 -20.264042 16.013258 -11.237515 -5.406475 -14.233100 9.902917 -16.498158 20.810770 16.029741 0.000000 0.000000 0.000000 -10.482511 -8.511502 -17.446432 -7.435539 -4.495636 -1.787632 -12.606158 -9.914600 -2.369624 -8.647417 -3.307343 -7.176109 -0.594737 3.049747 -3.815813 0.477367 4.595480 -2.175193 0.000000 0.000000 0.000000 -4.004939 -6.925174 0.576411 16.305647 9.666542 -7.277415 1.274629 8.359100 -3.952725 -19.070461 -24.508287 -13.622544 48.256092 21.829006 -10.674108 34.370800 26.782709 -1.860541 -7.856199 -0.430838 6.239144 6.200041 60.576824 -45.205112 8.036439 12.009024 -47.036007 14.077589 -16.312346 -37.853081 10.866298 -6.630882 -15.239417 1.567142 -15.027737 -22.845015 -6.514478 0.386493 -31.224575 0.000000 0.000000 0.000000 27.873007 -15.231312 20.543509 5.700557 -4.600845 0.065384 1.131965 0.273582 0.883759 22.313770 -9.255093 10.734189 5.560011 0.110279 4.284034 -1.861499 4.995955 1.570897 0.000000 0.000000 0.000000 27.317259 -12.110577 9.991171 0.734451 3.600255 6.697981 -6.846851 8.488401 0.404208 44.576389 -22.353565 24.683577 -1.375871 6.769926 7.066637 -18.177626 9.721386 -1.900864 0.078244 -0.003766 -0.229735 -0.205910 -0.010586 0.604672 
-19.990103 0.078286 -136.353531 -4.606248 -3.047107 165.958923 0.000000 0.000000 0.000000 4.285021 1.591276 -5.882393 -4.953133 -3.242077 -16.325363 5.870846 -17.806543 8.171265 6.490809 -7.180776 2.308975 0.000000 0.000000 0.000000 -17.572142 -16.975304 0.075156 5.551167 20.983192 6.774858 0.125621 -19.411963 -6.488788 -3.959320 -13.418874 -1.360932 0.000000 0.000000 0.000000 4.859967 -1.588134 -1.673102 0.000000 0.000000 0.000000 -2.666594 4.855100 -0.762694 -6.274356 -17.164320 8.197898 2.326745 11.081530 6.810823 0.000000 0.000000 0.000000 0.000000 0.000000 0.000000 0.000000 0.000000 0.000000 0.000000 0.000000 0.000000 0.000000 0.000000 0.000000 0.000000 0.000000 0.000000 0.000000 0.000000 0.000000 0.000000 0.000000 0.000000 0.000000 0.000000 0.000000 0.000000 0.000000 0.000000 0.000000 0.000000 0.000000 17.301693 0.503183 -1.396138 41.959015 32.077106 13.699274 -0.020392 -8.826530 -13.001512 4.724315 3.246806 6.253042 -20.264042 16.013258 -11.237515 -5.406475 -14.233100 9.902917 -16.498158 20.810770 16.029741 0.000000 0.000000 0.000000 -10.482511 -8.511502 -17.446432 -7.445282 -4.500581 -1.786686 -12.606158 -9.914600 -2.369624 -8.647417 -3.307343 -7.176109 -0.594737 3.049747 -3.815813 0.477367 4.595480 -2.175193 0.000000 0.000000 0.000000 -4.080573 -6.949516 0.565146 16.362316 9.688634 -7.282611 1.274629 8.359100 -3.952725 -19.070599 -24.507822 -13.622509 48.437744 21.886635 -10.702232 34.359303 26.778912 -1.853968 -8.220767 -0.504245 6.584411 7.658983 60.863190 -46.500103 5.814710 11.248239 -48.013760 13.834614 -15.973198 -36.981030 10.393160 -7.971775 -16.649002 1.526200 -15.033008 -22.983145 -7.407027 -0.278164 -31.623524 0.000000 0.000000 0.000000 28.453741 -15.651792 20.501060 5.700557 -4.600845 0.065384 1.131965 0.273582 0.883759 22.313770 -9.255093 10.734189 5.560011 0.110279 4.284034 -1.861499 4.995955 1.570897 0.000000 0.000000 0.000000 27.904669 -12.110332 10.380371 0.796688 3.567592 6.690988 -6.784201 8.449478 0.409154 45.158417 -22.007603 25.226377 -1.499871 6.816540 7.063016 -18.051369 9.641922 -1.889479 0.069142 -0.003312 -0.203009 -0.217625 -0.011254 0.639083 
-21.297136 0.023319 -136.146072 -5.295186 -3.173617 165.297333 0.000000 0.000000 0.000000 2.819984 1.066605 -5.816630 -4.774963 -3.258360 -15.813671 6.438445 -17.580061 8.221266 6.452319 -7.009572 2.318532 0.000000 0.000000 0.000000 -21.502855 -18.556051 -7.327108 6.947542 23.011997 1.066518 3.328698 -16.174179 -4.758901 -4.125319 -14.862066 -1.163396 0.000000 0.000000 0.000000 4.876752 -1.795754 -1.691761 0.000000 0.000000 0.000000 -3.433216 4.959839 -0.589417 -5.940204 -17.056065 8.279991 2.050370 10.753850 7.098134 0.000000 0.000000 0.000000 0.000000 0.000000 0.000000 0.000000 0.000000 0.000000 0.000000 0.000000 0.000000 0.000000 0.000000 0.000000 0.000000 0.000000 0.000000 0.000000 0.000000 0.000000 0.000000 0.000000 0.000000 0.000000 0.000000 0.000000 0.000000 0.000000 0.000000 0.000000 0.000000 0.000000 17.670940 0.534704 -1.303381 42.122688 32.290359 13.831225 -0.098933 -9.472799 -13.091444 4.345293 3.007702 5.839780 -20.264042 16.013258 -11.237515 -5.406475 -14.233100 9.902917 -16.498158 20.810770 16.029741 0.000000 0.000000 0.000000 -10.482511 -8.511502 -17.446432 -7.448853 -4.502058 -1.785100 -12.606158 -9.914600 -2.369624 -8.647417 -3.307343 -7.176109 -0.594737 3.049747 -3.815813 0.477367 4.595480 -2.175193 0.000000 0.000000 0.000000 -4.163623 -6.976374 0.552708 16.381428 9.696365 -7.284400 1.274629 8.359100 -3.952725 -19.070900 -24.507376 -13.622527 48.465355 21.906361 -10.696066 34.309395 26.754639 -1.844539 -8.013706 -0.496619 6.600348 8.473414 60.853176 -46.829617 3.085994 10.734915 -47.571465 14.049348 -15.875549 -36.932983 9.861896 -9.004882 -17.956129 1.526200 -15.033008 -22.983145 -8.068605 -0.782823 -31.901581 0.000000 0.000000 0.000000 28.890205 -15.980468 20.465183 5.700557 -4.600845 0.065384 1.131965 0.273582 0.883759 22.313770 -9.255093 10.734189 5.560011 0.110279 4.284034 -1.861499 4.995955 1.570897 0.000000 0.000000 0.000000 28.354927 -12.104777 10.680665 0.813125 3.554402 6.685249 -6.745340 8.424003 0.413389 45.581589 -21.728104 25.642176 -1.601904 6.855929 7.058578 -17.969431 9.589651 -1.881564 0.067243 -0.003218 -0.197432 -0.217844 -0.011267 0.639727 
